<?xml version="1.0" encoding="utf-8"?>
<!-- Generator: Adobe Illustrator 19.2.0, SVG Export Plug-In . SVG Version: 6.00 Build 0)  -->
<svg version="1.1" id="Layer_1" xmlns="http://www.w3.org/2000/svg" xmlns:xlink="http://www.w3.org/1999/xlink" x="0px" y="0px"
	 viewBox="0 0 1024 1000" style="enable-background:new 0 0 1024 1000;" xml:space="preserve">
<style type="text/css">
	.st0{fill:#FFFFFF;}
	.st1{fill:#7AAF42;}
	.st2{fill:#9BC370;}
	.st3{fill:#ADCD8A;}
	.st4{fill:#ADCE8A;}
	.st5{fill:#171717;}
</style>
<rect class="st0" width="1024" height="1000"/>
<path class="st0" d="M737.6,372.5c62.9,0,125.8,0,188.7,0c1.6,0,1.9,0.4,1.9,1.9c0,84.1,0,168.3,0,252.4c0,1.6-0.4,1.9-1.9,1.9
	c-275.8,0-551.6,0-827.4,0c-1.6,0-1.9-0.4-1.9-1.9c0-84.1,0-168.3,0-252.4c0-1.6,0.4-1.9,1.9-1.9c208.7,0,417.5,0,626.2,0
	c-0.2,1.2-1.2,0.9-2,1c-10.3,1.2-20.1,3.8-29.3,8.6c-15.9,8.2-27.8,20.4-36.1,36.2c-3.9,7.4-6.6,15.2-8.2,23.4
	c-0.5,2.6-0.9,5.2-0.8,7.9c0.2,7-0.6,14.1,0.6,21.1c2.5,14.3,8.4,27.2,17.4,38.6c10,12.7,22.7,21.5,37.8,26.7
	c6.5,2.3,13.2,3.7,20.2,3.7c7,0,14.1,0.4,21-0.8c10.7-1.7,20.6-6,29.7-11.8c20.5-13.2,32.4-32.1,36.8-55.8c1.3-7.2,1.4-14.6,0.9-22
	c-1.3-16.2-6.9-30.7-16.7-43.4c-13.9-17.9-32.2-28.7-54.9-31.9C740.3,373.6,738.6,374.1,737.6,372.5z"/>
<path class="st1" d="M737.6,372.5c2.9,1,5.9,1,8.9,1.6c19,3.8,34.7,13.1,47.4,27.6c10.7,12.2,17.2,26.4,19.3,42.3
	c2.6,19.2-0.3,37.7-10.2,54.8c-12.4,21.5-31.1,34.3-55,40.2c-1.9,0.5-4,0.6-6,0.8c-22.3,2.4-42.9-1.8-60.9-15.7
	c-17.8-13.7-29.1-31.8-32.4-54c-3.7-24.2,1.6-46.6,17.2-65.9c14.9-18.6,34.2-29.1,58-31.4c0.4,0,0.9,0.1,1.1-0.4c0.3,0,0.6,0,0.8,0
	c1,0.5,2.1,0.1,3.1,0.2c1.4,0,2.8,0,4.2,0c0.9-0.1,1.8,0.2,2.7-0.2C736.5,372.5,737.1,372.5,737.6,372.5z"/>
<path class="st2" d="M733.5,372.8c-1.5,0-3.1,0-4.6,0c-0.1-0.1-0.2-0.2-0.1-0.3c0-0.1,0.1-0.1,0.1-0.1c1.5,0,3.1,0,4.6,0
	c0.1,0.1,0.2,0.2,0.1,0.2C733.5,372.8,733.5,372.8,733.5,372.8z"/>
<path class="st3" d="M728.8,372.5c0,0.1,0,0.2,0,0.4c-1-0.1-2,0.5-2.9-0.4C726.9,372.5,727.9,372.5,728.8,372.5z"/>
<path class="st4" d="M733.5,372.8c0-0.1,0-0.3,0-0.4c0.8,0,1.7,0,2.5,0C735.2,373.3,734.3,372.7,733.5,372.8z"/>
<path class="st5" d="M263.7,412.6c5.9-14,16-22.4,31.6-22.5c15.7-0.1,25.4,8.7,31.7,22.6c0.8-1.5,1.5-2.6,2.1-3.7
	c12.4-22.6,43-25.5,59.4-5.6c4.3,5.2,5.7,11.5,6.1,18.1c1.3,22.1,0.8,44.1,0.6,66.2c-0.1,11.6,0.1,23.1-0.5,34.7
	c-0.2,4-0.6,4.5-4.6,4.8c-7.8,0.7-15.6,0.7-23.4,0c-3.9-0.3-4.5-0.9-4.6-4.9c-0.9-20.8-0.6-41.6-1-62.5c-0.2-8.9,0-17.8-0.7-26.7
	c-0.4-5.9-3.7-9.5-9.4-10.6c-10.7-2.1-19.4,4.7-19.9,16.5c-0.5,13.1-0.7,26.2-0.9,39.3c-0.2,14.3-0.1,28.7-0.8,43
	c-0.2,5.3-0.6,5.7-6,6c-7.6,0.5-15.2,0.3-22.8-0.1c-2-0.1-2.9-0.9-3.1-3c-0.5-6.8-0.5-13.6-0.6-20.5c-0.3-20-0.3-40-0.9-60
	c-0.1-3.3-0.4-6.5-0.7-9.8c-0.6-5.6-3.5-9.5-8.7-11.4c-5.5-2-10.7-0.9-15.2,2.9c-3.1,2.6-4.6,6-5,10c-0.8,6.2-0.9,12.5-1,18.8
	c-0.3,20.7-0.5,41.4-0.7,62c0,2.5-0.3,5-0.4,7.5c-0.1,2.2-1.3,3.2-3.4,3.4c-3.5,0.4-7.1,0.3-10.6,0.3c-4.6,0-9.2,0.2-13.8-0.3
	c-3.3-0.3-4.1-1-4.3-4.4c-0.2-4.9-0.4-9.7-0.4-14.6c0-33.1,0-66.3,0-99.4c0-3.9,0.2-7.8,0.4-11.7c0.2-3,0.6-3.4,3.4-3.7
	c7.9-0.8,15.8-0.8,23.8,0c2.8,0.3,3.4,1,3.7,3.8c0.4,4.2,0.2,8.5,0.3,12.7c0,0.8,0,1.6,0,2.4C263.4,412.4,263.5,412.5,263.7,412.6z"
	/>
<path class="st5" d="M97.5,491.2c-0.2-19.3,10.1-34.4,28.5-41.5c8.7-3.3,17.9-4.5,27.1-5.8c4.1-0.6,8.2-0.9,12.3-1.3
	c3.4-0.3,4-1,3.9-4.5c-0.1-3.2-0.4-6.4-0.9-9.6c-1.5-8.7-6.3-12.9-15.2-13.5c-9-0.6-16.9,4.9-19.7,13.4c-0.2,0.5-0.3,1.1-0.5,1.6
	c-1,3-1.9,3.8-5.1,3.9c-4.5,0.1-8.9-0.6-13.3-1.1c-3.1-0.4-6.2-0.9-9.3-1.5c-3.2-0.6-4-1.8-3.5-5c2.3-13.4,9.6-23.3,21.4-30
	c10.2-5.7,21.3-7.5,32.8-7.3c9.1,0.1,18,1.3,26.4,5.2c9.6,4.5,16,11.9,19.2,22c1.6,5,1.2,10.2,1.3,15.4c0.4,15.2,0.6,30.4,0.9,45.5
	c0,2,0.2,4,0.1,6.1c-0.3,6.5,1.9,12.1,5.8,17.2c1.2,1.7,2.3,3.5,3.4,5.3c1,1.8,0.9,3.5-0.6,4.9c-6.3,6.3-13.1,12.1-20.5,17.1
	c-1.4,0.9-2.6,0.5-3.9-0.2c-3.4-1.9-6-4.8-8.4-7.8c-1.4-1.8-2.8-3.6-4.2-5.4c-1.1-1.5-2.3-1.9-3.7-0.3c-1.1,1.2-2.5,2.2-3.8,3.3
	c-9.9,9-21.7,12.4-34.8,11.8c-7.1-0.3-13.8-1.6-19.9-5.4c-8.7-5.5-13.3-13.6-15-23.5C97.8,497.2,97.6,494.2,97.5,491.2z"/>
<path class="st5" d="M472.7,389.2c7,0,14.1-0.2,20.9,2.1c7.4,2.5,14.1,6.3,19.6,12c4.7,5,7.2,11,7.7,17.9c0.6,7.3,0.7,14.6,0.8,21.9
	c0.2,14.6,0.4,29.1,0.6,43.7c0,1.4,0.3,2.7,0.9,4c1.8,4,3.9,7.8,6.4,11.5c0.3,0.5,0.7,1.1,1,1.6c2.4,4.1,2.5,4.3-0.8,7.7
	c-5.3,5.4-10.8,10.7-17,15c-3.3,2.3-5,2.2-8-0.4c-4.1-3.7-7.8-7.8-10.7-12.5c-0.9-1.4-1.5-1.5-2.7-0.4c-2.1,1.9-4.2,3.6-6.3,5.4
	c-7.4,6.3-16,9.7-25.7,10c-4.5,0.2-9.1,0.5-13.6-0.1c-13.2-1.8-22.3-9-26.8-21.5c-5-13.8-3.7-27.3,4-39.9
	c6.2-10.1,15.7-15.9,26.9-19.1c10-2.9,20.3-3.9,30.6-5.1c1.7-0.2,3.4-0.5,5.1-0.9c1.4-0.3,2.3-1.3,2.3-2.8
	c-0.1-4.5-0.1-8.9-1.2-13.3c-1.4-5.8-5.3-9.2-11.1-10.3c-3.5-0.6-7.1-0.5-10.6,0.3c-6.6,1.6-10.4,6.1-12.6,12.2
	c-2.2,5.8-2.2,5.9-8.4,5.5c-6.5-0.5-13.1-1-19.5-2.4c-4-0.9-4.8-1.9-4-6c3-14.1,10.9-24.3,24.1-30.5
	C453.6,390.7,462.9,389.2,472.7,389.2z"/>
<path class="st5" d="M859,414c1.1-2,2.1-4,3.2-6c5.6-10.7,14.4-17,26.6-17.9c12.2-0.9,22.7,2.8,30.3,12.9c4.6,6,6.3,13.1,6.6,20.5
	c0.9,26.3,0.8,52.6,0.9,79c0,6.8,0.2,13.7-0.4,20.5c-0.3,3.1-1,4-4,4.2c-8.1,0.5-16.3,0.5-24.4,0c-2.8-0.2-3.6-0.9-3.9-3.6
	c-0.6-6.1-0.6-12.2-0.6-18.4c-0.1-17.8,0-35.7-0.3-53.5c-0.1-6,0.2-12-1.1-17.9c-0.2-0.9-0.5-1.9-0.8-2.8
	c-4-12.5-18.3-11.2-23.8-4.3c-3.6,4.5-5.3,9.8-5.9,15.4c-0.8,8-0.7,16.1-0.8,24.2c-0.1,15.5-0.1,31.1-0.1,46.6
	c0,3.2-0.2,6.4-0.4,9.6c-0.2,3.3-1.3,4.5-4.6,4.8c-8.4,0.6-16.8,0.4-25.3-0.1c-1.6-0.1-2.4-1-2.7-2.4c-0.5-2.2-0.7-4.5-0.8-6.8
	c-0.8-26-0.4-51.9-0.4-77.9c0-12.4,0.2-24.8,0.4-37.2c0-1.9,0.2-3.8,0.3-5.6c0.2-2.6,0.9-3.5,3.4-3.6c8.1-0.4,16.1-0.8,24.2-0.3
	c2.3,0.1,3.3,1.3,3.5,3.5c0.5,4.7,0.2,9.5,0.3,14.2c0,1,0,2,0,3C858.7,414,858.8,414,859,414z"/>
<path class="st5" d="M416.4,627.7c-54.4,0.6-105.2-13.1-152.5-39.8c-18.2-10.3-34.9-22.6-50.6-36.4c-1.5-1.3-2.8-2.7-4.2-4.1
	c-1.4-1.4-1.4-3-0.3-4.6c1-1.6,2.5-1.8,4.2-1.1c5.5,2.4,10.7,5.3,16,8.1c25.8,13.7,52.8,24.2,80.9,32.1c18.9,5.3,38.1,9.2,57.6,11.7
	c24.6,3.2,49.2,4,74,2.8c22.2-1.1,44.1-4.3,65.8-9.1c22.5-5,44.3-11.9,65.6-20.5c2.4-1,4.9-1.7,7.3-2.4c3-0.8,5.5,0.3,6.9,2.8
	c1.4,2.6,0.8,5.6-1.5,7.5c-5.4,4.5-11.3,8.3-17.3,12c-17.1,10.4-35.3,18.6-54.3,24.9c-16.3,5.4-33,9.2-49.9,12.3
	C448.2,627,432.3,627.3,416.4,627.7z"/>
<path class="st5" d="M593.8,482.8c1.4,0.6,2.8,0.5,4.1,0.6c9.5,0.5,18.9,1.4,28,4.3c3.9,1.3,7.5,2.9,11.2,4.6
	c3.5,1.7,5.2,4.4,5.4,8.3c0.3,6.1,0.4,12.1,0,18.2c-0.3,5.3-2.5,6.6-7.2,4.3c-17.5-8.8-36-10.8-55.1-8c-8.1,1.2-15.9,3.5-23.3,7.1
	c-1.2,0.6-2.4,1.1-3.6,1.6c-3.6,1.3-5.8,0-6.1-3.8c-0.4-6-0.1-12.1-0.2-18.2c-0.1-5.7,1.7-10.4,4.8-15.1
	c14.3-21.6,29.3-42.7,43.8-64.1c0.4-0.6,1.4-1.3,1-1.9c-0.4-0.8-1.5-0.3-2.3-0.4c-12.2-0.2-24.5-0.3-36.7-0.9c-0.4,0-0.8,0-1.3-0.1
	c-3.5-0.3-4.4-1.1-4.7-4.6c-0.5-5.6-0.5-11.3-0.1-16.9c0.2-3.8,1.6-5,5.4-5.2c13.8-0.8,27.6-0.4,41.3-0.4c11.9,0,23.8-0.3,35.7,0.4
	c1.1,0.1,2.2,0.2,3.3,0.5c1.7,0.5,2.8,1.6,3,3.4c0.7,5.9,0.2,11.8,0.3,17.7c0,0.8-0.6,1.4-1,2c-6.5,9.5-13,19.1-19.6,28.6
	c-8.1,11.8-16.3,23.6-24.4,35.4C595,480.9,594.5,481.8,593.8,482.8z"/>
<path class="st5" d="M581.1,549.8c-8.6,0.2-17.1,1-25.6,1.8c-2.2,0.2-4.4,0.3-6.7,0.3c-2.2,0-2.8-1.4-1.7-3.2
	c1.3-2.1,3.2-3.5,5.2-4.7c6.3-4,13.1-6.7,20.4-8.2c14.5-2.9,29-3.9,43.5-0.3c1.1,0.3,2.1,0.6,3.2,1c3.1,1.1,4.7,3.4,5,6.7
	c0.8,8.6-0.7,16.9-3,25.1c-3.7,13.2-9.6,25.3-18.7,35.7c-2,2.2-4.1,4.4-6.8,5.9c-1.2,0.7-2.5,1.4-3.7,0.5c-1.4-0.9-0.9-2.4-0.5-3.6
	c2.2-6.4,4.5-12.8,6.7-19.3c2.4-7.4,5-14.8,6.1-22.5c0.3-1.8,0.4-3.6,0.3-5.4c-0.1-4.5-1.8-6.8-6.1-8.1c-1.7-0.5-3.5-0.9-5.3-1.1
	C589.3,549.7,585.2,549.6,581.1,549.8z"/>
<path class="st0" d="M704.7,456c0-9.7,0-19.5,0-29.2c0-2.4,1.4-3.5,3.7-2.9c1.7,0.5,3.4,1.1,5.1,1.9c19.9,8.7,39.3,18.4,58.9,27.8
	c3.1,1.5,3.2,3.8,0.3,5.8c-3.8,2.5-7.9,4.4-12,6.4c-16.9,8.3-33.9,16.6-50.9,24.9c-2.8,1.4-4,0.7-4.5-2.5c-0.6-3.6-0.5-7.2-0.5-10.8
	C704.6,470.2,704.7,463.1,704.7,456C704.7,456,704.7,456,704.7,456z"/>
<path class="st0" d="M169.3,467.1c-0.4,6.9-0.8,13.7-2.5,20.2c-1.5,5.7-4.8,10.4-9.5,13.8c-4.8,3.5-10.3,3.7-15.7,1.7
	c-3.4-1.2-5.3-4-6.5-7.2c-1.8-5-2.3-10.3-1-15.4c2.1-8.4,8.1-13.3,16.1-15.7c5.8-1.7,11.8-2,17.8-2.3c1.1-0.1,1.5,0.1,1.4,1.3
	C169.3,464.7,169.3,466,169.3,467.1z"/>
<path class="st0" d="M487.7,469.2c0,6.4-0.5,12.8-2.6,18.9c-1.7,5.1-4.4,9.6-8.9,12.8c-8.9,6.6-21,2.3-23.6-8.4
	c-3.5-13.9,3.7-25.2,17.8-28.4c5.1-1.2,10.2-2,15.5-2c1.3,0,1.9,0.3,1.8,1.7C487.6,465.7,487.7,467.5,487.7,469.2z"/>
</svg>
