<?xml version="1.0" encoding="utf-8"?>
<!-- Generator: Adobe Illustrator 19.2.0, SVG Export Plug-In . SVG Version: 6.00 Build 0)  -->
<svg version="1.1" id="Layer_1" xmlns="http://www.w3.org/2000/svg" xmlns:xlink="http://www.w3.org/1999/xlink" x="0px" y="0px"
	 viewBox="0 0 1024 1000" style="enable-background:new 0 0 1024 1000;" xml:space="preserve">
<style type="text/css">
	.st0{fill:url(#SVGID_1_);}
	.st1{fill:#FFFFFF;}
	.st2{fill:url(#SVGID_2_);}
</style>
<linearGradient id="SVGID_1_" gradientUnits="userSpaceOnUse" x1="512" y1="1000" x2="512" y2="-2.298475e-08">
	<stop  offset="0" style="stop-color:#F36B21"/>
	<stop  offset="1" style="stop-color:#F9A11B"/>
</linearGradient>
<rect y="0" class="st0" width="1024" height="1000"/>
<path class="st1" d="M170,377.8c1.5,1,3.2,0.6,4.8,0.8c15.4,1.7,30.3,5.7,44.7,11.3c1.5,0.6,2.1,1.5,2.1,3.1
	c-0.1,13.9,0,27.8,0,41.8c0,0.5,0.1,1.1-0.4,1.5c-0.9-0.2-1.2-1.1-1.7-1.7c-6.3-8.5-13.1-16.5-22.3-22.1
	c-15.8-9.6-32.4-12.3-50.1-6.1c-13.6,4.8-22.6,14.5-27.9,27.7c-9.7,24-9.8,47.9,2.7,70.9c8.5,15.7,22.2,24.3,40.1,25.8
	c10.8,0.9,20.8-2.4,30.1-7.8c10.7-6.2,19.3-14.7,26.9-24.3c0.7-0.8,1.2-2.5,2.3-2.2c0.9,0.3,0.3,1.9,0.3,3c0.1,13.7,0,27.4,0.1,41.1
	c0,2.3-0.7,3.6-3,4.5c-14.8,5.9-30.1,9.4-46,10.9c-13.9,1.4-27.9,1.3-41.5-1.9c-32.1-7.7-55.1-26-66.1-57.9
	c-1.9-5.5-2.8-11.1-3.5-16.9c-0.1-0.5,0.2-1.1-0.5-1.4c0-5.7,0-11.4,0-17.1c0.7-3.8,0.7-7.7,1.5-11.6c4.7-21.3,16-38.4,33.1-51.7
	c13.5-10.6,28.9-16.6,45.8-19.2c2.4-0.4,4.9-0.1,7.3-0.6C155.8,377.8,162.9,377.8,170,377.8z"/>
<path class="st1" d="M355.4,531.8c2.8-7.8,5.6-15.7,8.4-23.6c8.6-24.2,17.2-48.4,25.9-72.6c1.6-4.6,3.7-8.9,5.8-13.3
	c4.9-10.2,13.5-14.7,24.3-14.9c11.5-0.3,23.1-0.1,34.6-0.2c1.6,0,1.9,0.9,2.3,2c6.6,19,13.2,38,19.7,56.9c9.3,27,18.6,53.9,28,80.9
	c0.1,0.1,0.1,0.3,0.2,0.4c1,3,1,3-2.2,3c-11.7,0-23.4,0-35.1,0c-1.9,0-2.7-0.6-3.3-2.4c-4.6-13.4-9.3-26.8-13.8-40.2
	c-0.7-2-1.7-2.7-3.8-2.6c-14.5,0.1-29.1,0.1-43.6,0c-2.2,0-3.2,0.6-3.9,2.7c-4.5,13.4-9.2,26.7-13.7,40c-0.6,1.8-1.4,2.5-3.4,2.5
	c-16-0.1-32-0.1-48-0.1c-3.1,0-6.1-0.3-9.1-1c-4.6-1.2-8.1-3.9-10.7-7.8c-4.4-6.6-7.3-14-10.6-21.2c-3.6-7.9-7.7-15.7-10.7-23.9
	c-2.4-6.5-1.4-12.4,3.5-17.5c2.9-3.1,5.9-6.1,8.8-9.1c7.5-7.7,10.5-16.7,7.3-27.2c-3.2-10.5-14.3-19.6-29-18.4
	c-3.8,0.3-7.4,1.4-10.9,2.8c-1.6,0.6-2,1.5-2,3.1c0.1,9.9,0,19.9,0,29.8c0,29.1,0,58.2,0,87.3c0,3.4,0,3.4-3.4,3.4
	c-11.4,0-22.8,0-34.2,0c-2.1,0-2.6-0.6-2.6-2.6c0-46.1,0-92.2,0-138.3c0-1.7,0.5-2.4,2.3-2.4c23.2,0.1,46.3,0,69.5,0.2
	c10.7,0.1,20.9,2,30.3,7.4c15.7,9,23.6,27.1,19.1,43.6c-1.8,6.8-5.7,12.4-10.6,17.3c-2.7,2.7-5.4,5.3-8.1,7.9
	c-0.8,0.8-1.2,1.4-0.6,2.6c7.5,14.9,15,29.9,22.5,44.9C354.7,531.3,354.9,531.6,355.4,531.8z"/>
<path class="st1" d="M878.6,467.6c0-26.7,0-53.4-0.1-80.1c0-2.4,0.6-2.9,2.9-2.9c32,0.1,64,0.1,96,0.1c3.1,0,3.1,0,3.1,3.1
	c0,7.2-0.1,14.3,0.1,21.5c0.1,2.5-1,2.7-3,2.7c-18.8,0-37.5,0-56.3,0c-3,0-3,0-3,3.1c0,10.6,0,21.2,0,31.9c0,3.1,0,3.1,3,3.1
	c18.5,0,36.9,0,55.4-0.1c2.1,0,2.6,0.6,2.6,2.6c-0.1,7.5-0.1,15.1,0,22.6c0,1.9-0.6,2.3-2.4,2.3c-18.3-0.1-36.6,0-54.9,0
	c-3.1,0-3.1,0-3.1,3c0,13.3,0,26.6-0.1,39.9c0,2.2,0.6,2.8,2.8,2.8c19.8-0.1,39.5-0.1,59.3,0c3.2,0,3.2,0,3.2,3.3
	c0,7.3-0.1,14.6,0,21.9c0,1.8-0.5,2.4-2.4,2.4c-33.7,0-67.4-0.1-101.1,0c-2.1,0-2.4-0.8-2.3-2.6
	C878.6,521.1,878.6,494.3,878.6,467.6z"/>
<path class="st1" d="M630.2,452.1c-1.7-2.2-3.4-4.3-5.1-6.5c-9-11.3-20.3-18.9-34.7-21.2c-17.8-2.8-37.7,3.8-46.5,25.2
	c-8.4,20.5-8.7,41,2,60.7c8.3,15.3,21.8,22.8,39.3,22.1c10.4-0.4,19.4-5,27.5-11.2c6-4.6,11.3-10,15.9-16c0.5-0.7,0.9-1.6,1.8-2
	c0.7,0.5,0.4,1.1,0.4,1.7c0,12,0,24,0.1,36c0,2.1-0.8,3.2-2.7,3.9c-23.5,8.8-47.6,12.9-72.4,7.9c-29.8-6.1-51.3-23-59.1-53.1
	c-11.2-42.9,13.6-81.4,53.2-93.5c16-4.9,32.3-4.8,48.6-2.1c10.1,1.6,19.9,4.6,29.5,8.1c2.2,0.8,2.9,1.9,2.8,4.2
	c-0.1,11.2-0.1,22.5-0.1,33.7c0,0.7,0,1.3,0,2C630.6,451.9,630.4,452,630.2,452.1z"/>
<path class="st1" d="M785,478.8c0-22.9,0-45.7,0-68.6c0-3.1,0-3,3-3c11.5,0,23.1,0,34.6,0c3.1,0,3.1,0,3.1,3.1
	c0,37.8,0,75.6,0,113.3c0,4,0,3.3,3.4,3.3c13.4,0,26.8,0.1,40.2,0c2.4,0,3,0.7,2.9,3c-0.2,6.1-0.1,12.2,0,18.2
	c0,1.7-0.5,2.3-2.2,2.3c-27.6,0-55.2-0.1-82.9,0c-2.4,0-2.1-1.4-2.1-2.9c0-18.6,0-37.2,0-55.9C785,487.5,785,483.2,785,478.8z"/>
<path class="st1" d="M752.5,550.5c-7.2,0-14.3,0-21.5,0c-1.7,0-2.9-0.5-3.9-2c-13.2-19.7-26.5-39.4-39.6-59.2
	c-5.3-8-5.1-14.4,0.7-22.1c14.6-19.3,29.3-38.5,44-57.8c1.1-1.5,2.5-2.2,4.3-2.2c12.8,0,25.7,0,38.5,0c0.5,0,1-0.1,1.2,0.4
	c0.2,0.6-0.4,1-0.7,1.4c-5.8,7.2-11.5,14.4-17.3,21.6c-11.3,14.1-22.5,28.2-33.9,42.3c-1.1,1.4-1.1,2.3-0.1,3.8
	c16.9,23.8,33.8,47.6,50.7,71.5c0.4,0.6,1.4,1.1,0.9,1.9c-0.4,0.8-1.4,0.3-2.1,0.3C766.6,550.5,759.5,550.4,752.5,550.5
	C752.5,550.4,752.5,550.5,752.5,550.5z"/>
<path class="st1" d="M680.8,478.9c0,22.8,0,45.5,0,68.3c0,3.2,0,3.2-3.1,3.2c-11.6,0-23.2,0-34.9,0c-2,0-2.8-0.4-2.8-2.7
	c0.1-46,0.1-92,0-138c0-2,0.5-2.6,2.6-2.6c11.8,0.1,23.5,0.1,35.3,0c2.4,0,2.9,0.7,2.9,3C680.8,433.1,680.8,456,680.8,478.9z"/>
<linearGradient id="SVGID_2_" gradientUnits="userSpaceOnUse" x1="407.941" y1="457.2746" x2="441.3087" y2="457.2746">
	<stop  offset="0" style="stop-color:#F2852F"/>
	<stop  offset="1" style="stop-color:#F48830"/>
</linearGradient>
<path class="st2" d="M425.4,431.9c3.6,11.1,7,21.8,10.4,32.5c1.7,5.4,3.4,10.8,5.2,16.2c0.5,1.4,0.6,2.1-1.3,2.1
	c-10.1-0.1-20.1-0.1-30.2,0c-1.5,0-1.9-0.4-1.3-1.9c5.6-16,11.1-32,16.6-48C424.9,432.6,425,432.5,425.4,431.9z"/>
</svg>
