<?xml version="1.0" encoding="utf-8"?>
<!-- Generator: Adobe Illustrator 19.2.0, SVG Export Plug-In . SVG Version: 6.00 Build 0)  -->
<svg version="1.1" id="Layer_1" xmlns="http://www.w3.org/2000/svg" xmlns:xlink="http://www.w3.org/1999/xlink" x="0px" y="0px"
	 viewBox="0 0 1024 1000" style="enable-background:new 0 0 1024 1000;" xml:space="preserve">
<style type="text/css">
	.st0{fill:#010101;}
	.st1{fill:#FFFFFF;}
	.st2{fill:#010201;}
	.st3{fill:#060606;}
	.st4{fill:#616161;}
</style>
<rect y="0" class="st0" width="1024" height="1000"/>
<g>
	<path class="st1" d="M589.5,326.6c41.3-78.8,136.7-83,189.1-36.8c50.8,44.7,54,125.6,5.7,175.1c-28.6,29.3-63.8,41.1-104.2,35.5
		c-40.7-5.7-69.3-29.2-89.8-64.7c-3.7,27.7-18,46.6-41.9,58.4c-9.6,4.7-19.8,6.5-30.4,6.6c-31.9,0.1-63.8,0-95.7,0.1
		c-4.4,0-5.9-0.9-5.9-5.7c0.2-75.3,0.2-150.7,0-226c0-4.4,1.1-5.4,5.4-5.4c33.8,0.2,67.6,1,101.3-0.1
		C558.3,262.3,588.3,296.6,589.5,326.6z"/>
	<path class="st1" d="M230.6,382c0-37.5,0.1-74.9-0.1-112.4c0-5,1.5-6,6.1-5.9c18.3,0.3,36.6,0.3,55,0c4.4-0.1,5.4,1.2,5.3,5.5
		c-0.2,25.5,0,51-0.2,76.6c0,4.8,1.2,6.3,6.1,6.1c10.3-0.4,20.6-0.3,30.9,0c4.2,0.1,5-1.3,5-5.2c-0.2-25.7,0-51.5-0.2-77.2
		c0-4.6,1-5.8,5.7-5.8c17.9,0.3,35.8,0.2,53.7,0.1c3.6,0,5.4,0.3,5.4,4.8c-0.2,75.7-0.1,151.5,0,227.2c0,4.1-1.2,5.2-5.2,5.2
		c-17.9-0.2-35.8-0.3-53.7,0c-4.6,0.1-5.9-1.1-5.8-5.8c0.2-27,0-53.9,0.2-80.9c0-4.5-0.8-6.1-5.6-5.8c-10.1,0.4-20.2,0.5-30.2,0
		c-5.2-0.2-6,1.7-6,6.3c0.2,26.6,0,53.1,0.2,79.7c0,4.9-0.9,6.7-6.3,6.6c-17.9-0.4-35.8-0.4-53.7,0c-5.5,0.1-6.2-1.8-6.2-6.6
		c0.2-37.5,0.1-74.9,0.1-112.4C230.7,382,230.6,382,230.6,382z"/>
	<path class="st1" d="M738.6,695.4c8.1-25.5,15.8-49.4,23.4-73.3c7.3-22.8,14.5-45.6,21.8-68.4c3.3-10.5,3.4-10.4,15.4-9.2
		c-5.1,16.2-10.2,32.3-15.3,48.4c-12.6,39.3-25.4,78.6-37.6,118.1c-1.9,6.3-5.7,4.7-9.7,5.1c-4.3,0.5-5.8-1.1-7.1-5.3
		c-13.9-46-28-91.9-42.5-139.3c-3.7,12-7,22.7-10.2,33.3c-10.8,35.4-21.6,70.8-32.2,106.3c-1.3,4.2-3.3,5.4-7.3,4.9
		c-4-0.4-7.9,1.1-9.8-5c-16.7-53.7-33.8-107.3-50.8-160.9c-0.6-1.9-3.4-5.4,0.2-5.8c3.7-0.3,9.4-3.5,11.5,2.8
		c4.5,13.4,8.7,26.8,13,40.3c11.1,34.4,22.2,68.9,33.3,103.4c0.4,1.2,0.4,2.5,2.1,3.4c8-26.3,16-52.6,24-78.8
		c6.7-22.1,13.4-44.2,20.1-66.4c0.9-3.1,1.8-5.3,6-5.3c4.5,0,5.2,2.3,6.2,5.7c14.7,47.7,29.5,95.3,44.4,143
		C737.5,693,737.8,693.4,738.6,695.4z"/>
	<path class="st1" d="M358.7,694.1c0-2.2,0-4.2,0-6.1c0-45.7,0-91.4,0-137.1c0-6.2,4.9-9.4,10.5-6.8c2.6,1.2,1.3,3.6,1.3,5.4
		c0.1,31.7,0.1,63.4,0.1,95.1c0,21.4,0.1,42.8-0.1,64.2c0,2.3,1.8,6.6-1.4,6.8c-4.4,0.3-9.7,2.8-13.5-2.5
		c-14.2-19.6-28.6-39.1-43-58.6c-22.4-30.5-44.7-60.9-67.1-91.4c-0.7-0.9-0.9-2.4-2.6-2.4c-1.2,2-0.5,4.3-0.5,6.5
		c-0.1,47.3,0,94.7-0.1,142c0,2.1,1.2,5.5-0.8,6.2c-2.9,1.1-6.6,1-9.7,0.4c-2.6-0.5-1.3-3.5-1.3-5.3c-0.1-41.8-0.1-83.6-0.1-125.3
		c0-12.1,0.2-24.3-0.1-36.4c-0.1-3.8,1.1-4.4,4.8-4.9c8.5-1,13.6,2.3,18.6,9.2c33.3,45.9,67,91.4,100.6,137.1
		C355.5,691.5,356.1,693.4,358.7,694.1z"/>
	<path class="st1" d="M394.7,628.6c-0.1-49.9,38.4-87.9,89-88c51,0,89.1,37.5,89.2,87.6c0.1,51.2-39.1,91.1-89.3,91
		C433.3,719.2,394.8,679.9,394.7,628.6z"/>
	<path class="st2" d="M758.5,380.4c-0.1,33.3-26.9,60.1-60.3,60.1c-33.2,0-60.2-27.2-60.1-60.4c0.1-33.4,27.3-60.4,60.4-60.2
		C731.8,320.1,758.5,347.1,758.5,380.4z"/>
	<path class="st0" d="M477.9,336.6c0-5.4,0.2-10.7-0.1-16.1c-0.2-3.4,1.1-4.1,4.2-4c9.1,0.2,18.1-0.1,27.2,0.1
		c11,0.2,18.3,8.7,18.1,20.5c-0.2,11.4-7.8,19.4-18.7,19.4c-8.6,0.1-17.3-0.3-25.9,0.1c-4.4,0.2-5.1-1.5-4.9-5.2
		C478.1,346.5,477.9,341.5,477.9,336.6z"/>
	<path class="st0" d="M477.9,425.1c0-5.1,0.1-10.3-0.1-15.4c-0.1-3,0.5-4.4,4-4.3c9.5,0.2,18.9-0.1,28.4,0.2
		c10.1,0.3,17.3,9.1,17.2,20.2c-0.2,10.7-7.7,19.4-17.3,19.6c-9.5,0.2-18.9-0.1-28.4,0.1c-2.9,0.1-4-0.7-3.8-3.8
		C478,436.2,477.9,430.7,477.9,425.1z"/>
	<path class="st3" d="M575.7,394.7c-5.5-6-11.8-11-20.3-14.5c8.8-3.2,15.7-8.1,22.8-14.1c-1.6,8.4-1.3,16-1.2,23.5
		C577.1,391.5,578.8,393.7,575.7,394.7z"/>
	<path class="st4" d="M575.7,394.7c1.9-1.3,0.2-3.5,1.3-5c0.4,1.8,0.8,3.6,1.1,5.4c0.1,0.8,0,1.9-1,1.6
		C576.4,396.5,576.1,395.4,575.7,394.7z"/>
	<path class="st0" d="M407.3,629c0.1-39.3,23.2-68.8,60.7-76.4c45.3-9.2,87.6,20.4,91.5,67.7c3.1,37.8-15.9,70.7-48,83.5
		c-44.8,17.9-95.1-11-103-58.9C407.8,639.3,407.5,633.8,407.3,629z"/>
	<path class="st1" d="M698.7,333c26.1,0.1,47.3,21.6,47.1,47.6c-0.2,25.9-22,47.4-47.8,47.2c-26.5-0.2-47.3-21.5-47.2-48.2
		C651,353.6,672.3,332.9,698.7,333z"/>
</g>
</svg>
