<?xml version="1.0" encoding="utf-8"?>
<!-- Generator: Adobe Illustrator 19.2.0, SVG Export Plug-In . SVG Version: 6.00 Build 0)  -->
<svg version="1.1" id="Layer_1" xmlns="http://www.w3.org/2000/svg" xmlns:xlink="http://www.w3.org/1999/xlink" x="0px" y="0px"
	 viewBox="0 0 1024 1000" style="enable-background:new 0 0 1024 1000;" xml:space="preserve">
<style type="text/css">
	.st0{fill:url(#SVGID_1_);}
	.st1{fill:#FFFFFF;}
</style>
<linearGradient id="SVGID_1_" gradientUnits="userSpaceOnUse" x1="512" y1="1000" x2="512" y2="-2.298657e-08">
	<stop  offset="0" style="stop-color:#66B145"/>
	<stop  offset="0.9987" style="stop-color:#A5CB39"/>
</linearGradient>
<rect class="st0" width="1024" height="1000"/>
<path class="st1" d="M430.4,607.6c-3.8-1.6-7.9-1.5-11.9-2.4c-30.1-6.7-48.4-27.7-51-58.6c-0.3-4-0.5-8-0.5-12
	c0-35.3,0-70.6-0.1-105.8c0-2.6,0.5-3.4,3.2-3.4c19.1,0.1,38.2,0.1,57.4,0c2.9,0,3.4,0.9,3.4,3.6c-0.1,33.7,0.2,67.4-0.2,101.1
	c-0.1,12,8.5,19.7,19.2,19.3c11.2-0.4,22.4-0.1,33.6-0.1c11.5,0,18.5-7,18.5-18.6c0-33.9,0-67.8-0.1-101.7c0-2.7,0.5-3.6,3.4-3.6
	c19.1,0.1,38.2,0.1,57.4,0c2.7,0,3.3,0.8,3.2,3.4c-0.1,36-0.1,72-0.1,108.1c0,10.4-1.4,20.6-5,30.5c-8.6,23.7-28.5,38.4-53.6,39.6
	c-0.7,0-1.5,0.1-2.2,0.1c-1.2,0.4-2.4,0.1-3.6,0.2c-20.8,0-41.6,0-62.3,0c-1.7,0.2-3.4-0.3-5.1,0.3
	C433,607.6,431.7,607.6,430.4,607.6z"/>
<path class="st1" d="M790.5,607.6c-2.9-1.5-6.1-1.2-9.1-1.8c-31.1-5.6-50.3-26.1-53.8-57.8c-0.4-3.9-0.5-7.8-0.5-11.7
	c0-35.8,0-71.6-0.1-107.4c0-2.6,0.4-3.6,3.4-3.5c19,0.2,38,0.1,57,0c2.9,0,3.4,0.8,3.4,3.5c-0.1,33.4-0.1,66.8-0.1,100.1
	c0,2.5,0,5.1,0.6,7.6c1.9,7.3,8.4,12.5,16,12.6c12.7,0.1,25.4,0.2,38,0c9.6-0.1,16.7-7.8,16.7-17.9c0-33.6,0-67.2,0-100.8
	c0-5.1,0-5.1,5.1-5.1c18.3,0,36.5,0,54.8,0c1.2,0,2.3,0.1,3.5,0.2c0.5,1.1,0.3,2.3,0.3,3.4c0,35.8,0,71.5,0,107.3
	c0,1.1-0.3,2.3,0.3,3.4c0,1.9,0,3.8,0,5.7c-0.7,5.9-1.2,11.9-2.9,17.6c-4.5,14.7-12.5,26.9-25.6,35.3c-9.7,6.2-20.5,9.1-32.1,8.9
	c-1.3,0-2.6,0-3.9,0c-20.7,0-41.5,0-62.2,0c-1.7,0.2-3.4-0.3-5.1,0.3C793,607.6,791.7,607.6,790.5,607.6z"/>
<path class="st1" d="M123,607.6c-1.3-0.6-0.6-1.7-0.6-2.5c0-32.2,0-64.4,0-96.5c0-54.3,0-108.7,0-163c0-0.9-0.7-2.1,0.6-2.8
	c0.3,0.3,0.5,0.7,0.7,1.1c0.5,1.5,0.4,3.1,0.4,4.7c0,84.5,0,168.9,0,253.4c0,1.6,0.1,3.2-0.3,4.7C123.5,606.9,123.3,607.3,123,607.6
	z"/>
<path class="st1" d="M678.3,342.7c0,0.2,0,0.4,0,0.7c-1.2,1.1-2.7,1-4.2,1c-18.3,0-36.7,0-55,0c-1.5,0-3,0-4.2-1
	c-0.1-0.2-0.1-0.4,0-0.6C636,342.7,657.1,342.7,678.3,342.7z"/>
<path class="st1" d="M123,343.4c0-0.2,0-0.5,0-0.7c21.1,0,42.3,0,63.4,0c0,0.2-0.1,0.5-0.1,0.7c-1.2,1.1-2.7,1-4.2,1
	c-18.3,0-36.6,0-54.9,0C125.8,344.3,124.3,344.4,123,343.4z"/>
<path class="st1" d="M321.3,607c-21.1,0-42.3,0-63.4,0.1c-0.1-1.3-0.2-2.5-0.2-3.8c0-33.3,0-66.5,0-99.8c0-2.4,0-4.9-0.6-7.2
	c-2-7.6-8.6-12.6-16.9-12.6c-12-0.1-24.1-0.1-36.1,0c-10.4,0.1-17.6,7.4-17.6,17.9c0,33.9,0,67.8,0,101.7c0,1.3-0.1,2.5-0.1,3.8
	c-21.1,0-42.1,0-63.2-0.1c0-0.4-0.1-0.8-0.1-1.3c0-87.4,0-174.8,0-262.3c21.1,0,42.2,0,63.3,0c0,27.4,0.1,54.7,0.1,82.1
	c0,1.2,0,2.3,0,3.8c11-4.6,22.4-3.7,33.6-3.7c12,0,24.1-0.1,36.1,0.2c10.2,0.3,20.1,2.3,29.5,6.4c19.6,8.4,30.6,23.4,34.4,44.1
	c1,5.3,1.4,10.7,1.4,16.1c0,37.6,0,75.2,0,112.8C321.5,605.7,321.4,606.3,321.3,607z"/>
<path class="st1" d="M678.2,607c-21.1,0-42.3,0-63.4,0c-0.1-1-0.2-2.1-0.2-3.1c0-85.8,0-171.6,0-257.4c0-1,0.1-2.1,0.2-3.1
	c21.1,0,42.3,0,63.4,0c0,0.9,0.1,1.9,0.1,2.8c0,86,0,172,0,258C678.4,605.1,678.3,606,678.2,607z"/>
</svg>
