<?xml version="1.0" encoding="utf-8"?>
<!-- Generator: Adobe Illustrator 19.2.0, SVG Export Plug-In . SVG Version: 6.00 Build 0)  -->
<svg version="1.1" id="Layer_1" xmlns="http://www.w3.org/2000/svg" xmlns:xlink="http://www.w3.org/1999/xlink" x="0px" y="0px"
	 viewBox="0 0 1024 1000" style="enable-background:new 0 0 1024 1000;" xml:space="preserve">
<style type="text/css">
	.st0{fill:#CB3029;}
	.st1{fill:#FFFFFF;}
</style>
<rect class="st0" width="1024" height="1000"/>
<g>
	<path class="st1" d="M528.2,303.2c7.9-11.2,17.1-20.3,28.2-27.4c58.1-37,134.7-1.4,143.8,66.8c3,22.4-2.3,42.9-15.9,60.7
		c-8.3,11-17.4,21.6-27.2,31.2c-27.1,26.4-54.9,52.1-82.3,78.1c-0.4,0.3-0.7,0.9-1.1,1c-2.9,0.7-6.2,2.4-8.5,1.5
		c-2-0.8-3.8-4.6-3.9-7.1c-0.3-20-0.1-40-0.2-60c-0.1-16.8-9.5-29.3-24.8-33.4c-20-5.3-40.5,9.6-40.8,30.4
		c-0.4,20.2-0.1,40.3-0.1,60.5c0,4.1,0.2,8.3-4.5,10.1c-4.3,1.7-7.2-0.9-10-3.7c-29-27.6-58.2-54.9-86.9-82.7
		c-7.5-7.3-14.2-15.5-20.5-23.8c-32.1-41.8-17-92,11.2-118.7c40.3-38.1,104-33.6,138.6,9.9C524.8,298.7,526.3,300.7,528.2,303.2z
		 M556.4,358.6c0-15.5-12.7-28.4-28.2-28.4c-15.3,0-28,12.6-28.2,27.9c-0.2,15.6,12.4,28.5,28,28.6
		C543.4,386.9,556.3,374.1,556.4,358.6z M427.5,288.8c-3,1.7-5.4,2.6-7.3,4.1c-17.5,13.9-27.7,32.2-28.7,54.3
		c-1.6,34.9,18.3,59.3,42.4,81c2.7,2.5,6,1.9,8.5-0.7c2.5-2.7,2.5-5.7,0.1-8.6c-1.2-1.4-2.8-2.4-3.9-3.8
		c-8.3-10-17.5-19.3-24.4-30.1c-10.8-16.9-13.5-35.6-5.9-54.9c4.4-11.2,11-20.9,21-27.9c2.8-1.9,5-4.5,3.4-7.9
		C431.8,292.3,429.5,290.8,427.5,288.8z M665.6,351.3c-0.7-4.9-1.1-9.9-2.2-14.8c-4.4-18.2-13.4-33.6-28.8-44.7
		c-4.1-2.9-7.8-2.5-10.1,0.7c-2.3,3.2-1.3,6.7,2.5,9.8c3.7,3.1,7.5,6.2,10.5,9.8c17.6,21.4,19.3,47.4,5.1,72.6
		c-7.1,12.6-16.8,23.1-27.4,32.8c-3.6,3.3-4,7.3-1.4,10.1c2.7,2.9,6.5,2.9,10.1-0.6c5.8-5.7,11.8-11.3,17-17.5
		C655.1,392.7,664.7,373.9,665.6,351.3z M612.7,352.4c-0.6-3.7-1.1-8.7-2.5-13.4c-3.9-13.6-12.2-23.9-24.4-31
		c-4.2-2.4-8.1-1.8-10.1,1.5c-2,3.4-0.8,6.9,3.4,9.6c0.6,0.4,1.2,0.7,1.7,1c14.3,9.1,21.2,25.3,17.6,41.9
		c-3,14.1-11.3,24.6-23.5,32.1c-4.1,2.5-5.3,6.5-2.9,9.7c2.7,3.6,6,3.6,9.7,1.3C600.7,393.2,611.1,376.2,612.7,352.4z M443.8,354.5
		c1.4,22,12.1,39.1,31.3,50.9c3.8,2.3,7.6,1.4,9.4-2c2-3.8,0.5-6.6-2.7-9c-3.9-2.8-8-5.5-11.3-8.9c-22.7-23.9-14.9-55,7.1-66.6
		c4.1-2.2,5.1-6,2.9-9.2c-2.5-3.7-5.9-3.9-9.6-1.8C453.4,318.1,444.6,333.6,443.8,354.5z"/>
	<path class="st1" d="M388.6,540c7.5,0,14.5,0,22,0c0,9.9,0,19.7,0,29.8c9.8,0,19,0,28.9,0c0-9.6,0-19.4,0-29.5c7.8,0,15,0,22.6,0
		c0,26.7,0,53.4,0,80.5c-7.3,0-14.5,0-22.2,0c0-10.1,0-20,0-30.3c-9.7,0-19,0-28.7,0c0,10.1,0,20,0,30.2c-7.8,0-15,0-22.4,0
		C388.6,593.8,388.6,567.1,388.6,540z"/>
	<path class="st1" d="M598,620.8c-7.1,0-13.6,0-20.4,0c-0.3-1.4-0.6-2.9-1-5c-8.8,7.2-18.4,8.1-28.5,5.4
		c-8.8-2.4-13.3-8.3-13.6-16.9c-0.3-8.5,4-15.2,12.4-17.8c4.8-1.5,10.1-2,15.2-2.4c4.6-0.4,9.3-0.1,13.9-0.1
		c-1.9-11.7-13.1-13.6-27.3-4.6c-3.7-3.1-7.6-6.2-11.7-9.7c5.5-7.5,12.7-11.3,21.4-12.5c23.2-3.2,39.4,10.8,39.6,34.1
		C598.1,601.1,598,610.8,598,620.8z M576.7,595.9c-4.8,0-9.5-0.1-14.3,0c-3.4,0.1-6.3,1.4-6.3,5.5c0,3.9,2.4,6,6,6.7
		C570.4,609.7,576.2,605,576.7,595.9z"/>
	<path class="st1" d="M531.8,595.8c-13.9,0-27.5,0-41.1,0c2.7,11.7,13.5,13.2,27.2,4.1c3.8,3.1,7.6,6.2,11.4,9.4
		c-6.3,11.9-26.1,16.8-41.5,10.5c-15.3-6.3-22.8-23.8-17.4-41c5-16.1,21-25,37.9-21.2C524.7,561.2,534.3,576.4,531.8,595.8z
		 M511.2,583.9c-0.6-7-4.9-11.1-10.9-10.8c-5.8,0.2-9.8,4.6-9.8,10.8C497.3,583.9,504.1,583.9,511.2,583.9z"/>
	<path class="st1" d="M698.6,602.2c0,4.9,0.2,9.6-0.1,14.2c-0.1,1.3-1.8,3.5-3,3.6c-6.5,0.8-13.2,2.1-19.6,1.2
		c-8.5-1.1-13.1-7.6-13.4-16.7c-0.3-9.3-0.1-18.6-0.1-28.2c-2.7-0.2-4.9-0.4-7.4-0.6c0-5.8,0-11.4,0-17.3c2.4-0.2,4.6-0.4,7.3-0.7
		c0-5.1,0-10,0-15.3c7.4,0,14.3,0,21.9,0c0,5,0,10,0,15.4c5.1,0,9.5,0,14.4,0c0,6.1,0,11.8,0,18c-4.6,0-9.1,0-14.1,0
		c0,7.8-0.1,15.1,0,22.4c0.1,3.1,1.9,5,5.1,4.9C692.4,603.1,695.2,602.6,698.6,602.2z"/>
	<path class="st1" d="M361.9,683.7c0,6.8,0,13.1,0,19.4c0,1.7,0,3.3,0,5c-0.1,2.8-1.1,5.5-4.2,4.8c-1.7-0.4-3.7-3-4.1-4.9
		c-0.7-3.4-0.2-7-0.2-10.5c0-17.5,0-35,0-52.5c0-6.6,0.7-7.3,7.1-7.3c10,0,20-0.3,30,0.3c14.9,0.9,23.6,11.1,22.1,25.1
		c-0.8,8.1-5.5,13.3-12.7,16.6c-1.9,0.9-4,1.5-6.8,2.5c3.5,4.5,6.8,8.8,10.1,13c2.6,3.3,5.1,6.6,7.7,9.9c1.8,2.3,3,4.8,0.3,7
		c-2.9,2.3-5.3,0.6-7.2-1.8c-1.8-2.4-3.7-4.7-5.5-7.1c-4.4-5.7-8.7-11.4-13.1-17c-0.9-1.1-2.3-2.4-3.4-2.4
		C375.4,683.5,369,683.7,361.9,683.7z M362.1,675.7c9.2,0,18,0.2,26.7-0.1c2.4-0.1,4.9-1.1,7.1-2.1c5.7-2.6,8.8-8.1,8.3-14.1
		c-0.5-6.3-3.8-11.4-9.9-12.2c-10.5-1.5-21.3-1.6-32.2-2.3C362.1,656,362.1,665.5,362.1,675.7z"/>
	<path class="st1" d="M628.5,620.8c-7.7,0-14.6,0-21.8,0c0-20.8,0-41.4,0-62.3c7.1,0,14.1,0,21.5,0c0,3.3,0,6.5,0,9.8
		c0.3,0.3,0.6,0.6,0.9,0.9c4.1-7.8,9.9-12.4,19-12c0,7.7,0,15.1,0,22.5c-0.3,0.2-0.6,0.5-0.8,0.5c-15.6,0.7-18.4,10.1-18.8,21.4
		C628.4,607.8,628.5,614.1,628.5,620.8z"/>
	<path class="st1" d="M703.4,674.8c0.1,22.1-16.4,39.1-38,39.2c-21.9,0.1-38.4-16.3-38.6-38.5c-0.2-21.9,16.9-39.4,38.6-39.2
		C686.9,636.4,703.3,653,703.4,674.8z M694.5,675.3c0-17.6-12.9-31.1-29.6-31.1c-16.5,0.1-29.3,13.6-29.3,30.9
		c0,17.6,12.9,31,29.8,31C682,706,694.5,692.9,694.5,675.3z"/>
	<path class="st1" d="M515.1,675.1c0-10.3,0.1-20.6-0.1-30.9c-0.1-4.7,1.7-6.8,6.4-6.5c10.1,0.5,20.4-0.3,30.3,1.5
		c18.4,3.3,30.2,19.3,29.3,37.4c-0.9,18.7-13.9,33.3-32.4,35.5c-9.4,1.1-18.9,0.7-28.4,0.9c-4.2,0.1-5.3-2.5-5.3-6.2
		C515.2,696.1,515.1,685.6,515.1,675.1z M523.7,704.8c6.9,0,13.2,0.3,19.6-0.1c16.3-0.9,27.4-11.4,28.8-27c1.4-14.7-7.7-28-22.4-31
		c-8.3-1.7-17.1-1.2-26-1.7C523.7,665.5,523.7,684.9,523.7,704.8z"/>
	<path class="st1" d="M462.1,635.4c2.5,2.2,4.8,3.4,5.6,5.2c10.2,21.9,20.3,43.8,30.1,65.8c0.7,1.6-0.2,5.4-1.5,6.2
		c-2.7,1.8-4.9-0.3-6.1-3.1c-2-4.6-3.9-9.2-6.3-13.6c-0.7-1.4-2.9-2.8-4.4-2.8c-11.7-0.2-23.3-0.2-35,0c-1.5,0-3.5,1.5-4.2,2.9
		c-2.3,4.4-4.2,9-6.2,13.6c-1.2,2.8-3.5,4.8-6.1,2.9c-1.3-0.9-1.9-4.6-1.1-6.3c9.7-21.7,19.6-43.4,29.7-64.9
		C457.5,639.2,459.8,637.8,462.1,635.4z M479.3,684.9c-5.8-12.8-11.3-25-17.1-38c-5.9,13.3-11.4,25.4-17,38
		C456.7,684.9,467.5,684.9,479.3,684.9z"/>
	<path class="st1" d="M378.6,620.8c-8.2,0-15.6,0-23.4,0c-0.2-1-0.5-1.9-0.6-2.8c0-14.2-0.1-28.3,0-42.5c0.1-8,4.8-12.8,12.2-12.7
		c7.2,0.1,11.6,4.7,11.7,12.6C378.6,590.4,378.6,605.4,378.6,620.8z"/>
	<path class="st1" d="M608.2,675c0,10.6,0.2,21.3-0.2,31.9c-0.1,2.1-1.9,5.5-3.5,5.9c-4.4,1-5-2.6-5-6c0-18,0-35.9,0-53.9
		c0-3.5-0.5-7.1,0.2-10.4c0.4-2,2.4-4.8,4-5.1c3.2-0.6,4.5,2.2,4.5,5.2C608.2,653.4,608.2,664.2,608.2,675z"/>
	<path class="st1" d="M378.4,545.6c0,6.5-5.1,11.6-11.8,11.6c-6.6,0-11.6-5.1-11.6-11.7c0-6.6,5.1-11.6,11.7-11.6
		S378.4,539.1,378.4,545.6z"/>
</g>
</svg>
