<?xml version="1.0" encoding="utf-8"?>
<!-- Generator: Adobe Illustrator 19.2.0, SVG Export Plug-In . SVG Version: 6.00 Build 0)  -->
<svg version="1.1" id="Layer_1" xmlns="http://www.w3.org/2000/svg" xmlns:xlink="http://www.w3.org/1999/xlink" x="0px" y="0px"
	 viewBox="0 0 1024 1000" style="enable-background:new 0 0 1024 1000;" xml:space="preserve">
<style type="text/css">
	.st0{fill:#D82328;}
</style>
<rect width="1024" height="1000"/>
<path class="st0" d="M254.5,576.6c-11.8,2.1-23.8,2.7-36.2,4.3l-37.8-110.7v115.5c-11.8,1.2-22.5,2.9-33.7,4.5V378.7h31.4l43,120
	v-120h33.3V576.6L254.5,576.6z M319.6,456.1c12.8,0,32.4-0.6,44.2-0.6v33.1c-14.7,0-31.8,0-44.2,0.6v49.2
	c19.4-1.2,38.8-2.9,58.5-3.5v31.8l-91.5,7.2V378.7H378v33.1h-58.5C319.6,411.7,319.6,456.1,319.6,456.1z M501,411.7h-34.3v152
	c-11.2,0-22.3,0-33.1,0.4V411.7h-34.3v-33.1H501C501,378.7,501,411.7,501,411.7z M554.7,453.9h45.2v33.1h-45.2v75h-32.4V378.7h92.3
	v33.1h-59.9C554.7,411.7,554.7,453.9,554.7,453.9z M668.3,533c18.8,0.4,37.8,1.9,56.2,2.9v32.6c-29.5-1.9-59.1-3.7-89.2-4.3V378.7
	h33.1V533L668.3,533z M752.4,570.8c10.5,0.6,21.7,1.2,32.4,2.5V378.7h-32.4V570.8z M929.6,378.7l-41.9,100.6l41.9,110.9
	c-12.4-1.7-24.8-3.9-37.2-6l-23.8-61.1l-24.2,56.2c-12-2.1-23.6-2.7-35.5-4.3l42.6-96.9l-38.4-99.4h35.5l21.7,55.6l23.1-55.6
	L929.6,378.7L929.6,378.7z"/>
</svg>
