<?xml version="1.0" encoding="utf-8"?>
<!-- Generator: Adobe Illustrator 19.2.0, SVG Export Plug-In . SVG Version: 6.00 Build 0)  -->
<svg version="1.1" id="Layer_1" xmlns="http://www.w3.org/2000/svg" xmlns:xlink="http://www.w3.org/1999/xlink" x="0px" y="0px"
	 viewBox="0 0 1024 1000" style="enable-background:new 0 0 1024 1000;" xml:space="preserve">
<style type="text/css">
	.st0{fill:#FEFEFD;}
	.st1{fill:#1A8DCD;}
	.st2{fill:#5B9FD7;}
	.st3{fill:#FFFFFF;}
</style>
<rect y="0" class="st0" width="1024" height="1000"/>
<path class="st1" d="M588.5,353.5c5.3,2,6.9,6,6.9,11.5c-0.1,50.2-0.1,100.4-0.1,150.7c0,5.4-1.6,9.8-6.2,12.9
	c-2.1,1.4-4.5,2.1-7.1,2.1c-14.7,0-29.3,0.2-43.9-0.1c-27.2-0.7-51.6-23-54.9-50c-2.1-16.9,0-32.9,10.4-47
	c11.6-15.6,27.2-23.8,46.6-24.4c8.5-0.2,17-0.2,25.4,0c2.7,0.1,3.1-0.8,3.1-3.2c-0.1-14.4,0-28.7,0-43.1c0-4.8,2.8-8,7.4-8.8
	c2.8-0.5,5.7-0.1,8.6-0.2c1-0.1,2.1,0.3,3.1-0.3C588.1,353.5,588.3,353.5,588.5,353.5z"/>
<path class="st2" d="M587.9,353.5c-3.8,1.2-7.8,0.3-11.7,0.5c0-0.2,0.1-0.3,0.1-0.5C580.2,353.5,584.1,353.5,587.9,353.5z"/>
<path class="st1" d="M98.7,498.1c0-24.4,0-48.8,0-73.2c0-8,3.5-13.2,10.1-15c1.5-0.4,3.1-0.4,4.6-0.4c13,0,26,0.2,39-0.1
	c29.5-0.7,54.6,20.7,59.1,48.7c4.7,28.8-6.5,53.8-31.6,66.8c-7.7,4-16,6-24.7,6.1c-9,0.1-17.9,0.1-26.9,0c-2.4,0-3.1,0.7-3.1,3.1
	c0.1,16.6,0,33.2,0.1,49.7c0,2.4-0.4,3.5-3.1,3.3c-3.3-0.3-6.6,0-9.8-0.1c-7.4-0.2-12.7-5-13.5-12.4c-0.1-1.3-0.2-2.7-0.2-4
	C98.7,546.4,98.7,522.2,98.7,498.1z"/>
<path class="st1" d="M337.4,470c0,15.4,0,30.8,0,46.3c0,9.5-5.4,14.8-14.9,14.8c-11.8,0-23.5,0.1-35.3-0.1
	c-27.4-0.4-52.1-22.3-55.7-49.5c-2.4-17.9,0-34.8,11.7-49.4c11.5-14.4,26.5-22.1,44.9-22.5c11.8-0.3,23.7-0.1,35.6-0.1
	c8.1,0,13.7,5.7,13.7,13.9C337.4,439,337.4,454.5,337.4,470z"/>
<path class="st1" d="M958.2,470.5c0,15.2,0,30.5,0,45.7c0,9.6-5.3,14.9-14.8,14.9c-11.6,0-23.1,0.1-34.7,0
	c-28.3-0.4-52.9-22.2-56.5-50.3c-2.3-18,0.4-34.8,12.3-49.3c11.4-14,26.2-21.5,44.4-21.9c11.9-0.3,23.9-0.1,35.9,0
	c7.8,0,13.4,5.7,13.5,13.5C958.3,438.9,958.2,454.7,958.2,470.5z"/>
<path class="st1" d="M680.5,531.2c-33.4-0.1-60.7-27.4-60.6-60.8c0-33.3,27.8-60.9,61.1-60.7c33.3,0.1,60.5,27.6,60.4,61.1
	C741.2,504.2,714,531.3,680.5,531.2z"/>
<path class="st1" d="M359,470c0-16.7,0-33.3,0-50c0-7.3,3.2-10.5,10.3-10.5c18,0,36,0,54.1,0c22.5,0,39.3,16.7,39.4,39.2
	c0.1,24.2,0,48.4,0,72.6c0,6-3.7,9.7-9.7,9.8c-2.5,0-5,0-7.5,0c-6,0-9.3-3.4-9.3-9.3c0-16.6,0-33.2,0-49.7c0-7,0-14.1,0-21.1
	c0-8.8-5.3-14.4-14.1-14.6c-11.8-0.2-23.5,0-35.3-0.1c-2.6,0-2.1,1.6-2.1,3c0,27.3,0,54.6,0,81.8c0,1.9-0.1,3.8-1.1,5.6
	c-1.1,1.9-2.6,3.5-4.8,3.9c-4.7,0.8-9.6,1-14.3-0.1c-3.1-0.8-5-3.2-5.4-6.5c-0.2-1.4-0.3-2.9-0.3-4.3C359,503.2,359,486.6,359,470z"
	/>
<path class="st1" d="M841.4,423.1c0.8,9.5-2.9,13.2-12.7,12.7c-6.5-0.4-12.9,0.3-18.9,3.1c-9.7,4.6-13.3,13.1-14.8,23
	c-1.1,7.3-0.4,14.6-0.5,21.9c-0.1,12.3,0,24.7-0.1,37c0,6.1-3.5,9.7-9.6,9.8c-2.8,0-5.6,0.1-8.4,0c-4.9-0.1-8.6-3.5-8.5-8.4
	c0.2-20.6-1.2-41.3,0.6-61.8c2.7-31.4,23.8-49.3,51.5-51c3.7-0.2,7.3-0.3,11-0.3c6.6,0.1,10.2,3.6,10.3,10.2
	C841.4,420.6,841.4,421.8,841.4,423.1z"/>
<path class="st3" d="M568.8,469.8c0,10.5-0.1,21,0,31.5c0,2.1-0.5,2.8-2.7,2.8c-8.6-0.1-17.2,0.1-25.7-0.1
	c-17.7-0.3-30.9-13.7-31.2-31.3c-0.1-5.4-0.1-10.8,1.8-16c4.3-12.1,15.6-20.7,28.4-21c9.1-0.2,18.1,0,27.2-0.1
	c2.2,0,2.2,1.1,2.2,2.7C568.8,448.8,568.8,459.3,568.8,469.8z"/>
<path class="st3" d="M125.3,470.3c0-10.4,0.1-20.8-0.1-31.2c0-2.5,0.7-3,3.1-3c8.4,0.1,16.8,0,25.1,0.1
	c18.8,0.1,32.2,13.6,32.5,32.5c0.1,9-1.4,17.4-7.4,24.5c-6,7.1-13.6,11-22.9,11.2c-9.3,0.3-18.7,0-28,0.1c-2,0-2.4-0.7-2.4-2.5
	C125.3,491.5,125.3,480.9,125.3,470.3z"/>
<path class="st3" d="M310.8,470.4c0,10.5-0.1,21,0,31.5c0,2-0.5,2.7-2.6,2.6c-8.4-0.4-16.8,0.8-25.1-0.6
	c-14.5-2.4-25.1-14.9-25.7-29.6c-0.4-9.4,0.4-18.3,6.6-26c6-7.5,13.8-11.6,23.4-12c7-0.3,14.1,0,21.1-0.1c2,0,2.3,0.7,2.3,2.5
	C310.8,449.2,310.8,459.8,310.8,470.4z"/>
<path class="st3" d="M931.6,470.4c0,10.4-0.1,20.8,0,31.2c0,2.1-0.4,3.1-2.8,3c-8.4-0.4-16.8,0.7-25.1-0.7
	c-14.2-2.5-25-15.1-25.5-29.6c-0.3-8.3,0.1-16.4,4.9-23.6c6-9.1,14.5-14,25.3-14.5c6.9-0.3,13.9,0,20.8-0.1c2,0,2.4,0.7,2.4,2.5
	C931.6,449.2,931.6,459.8,931.6,470.4z"/>
<path class="st3" d="M714.8,470.6c0,19.1-15.1,34-34.2,34c-19,0-34.2-15.3-34.1-34.2c0.1-18.9,15.5-34.2,34.3-34.1
	C699.7,436.3,714.8,451.6,714.8,470.6z"/>
</svg>
