<?xml version="1.0" encoding="utf-8"?>
<!-- Generator: Adobe Illustrator 19.2.0, SVG Export Plug-In . SVG Version: 6.00 Build 0)  -->
<svg version="1.1" id="Layer_1" xmlns="http://www.w3.org/2000/svg" xmlns:xlink="http://www.w3.org/1999/xlink" x="0px" y="0px"
	 viewBox="0 0 1024 1000" style="enable-background:new 0 0 1024 1000;" xml:space="preserve">
<style type="text/css">
	.st0{fill:#54BA5D;}
</style>
<rect width="1024" height="1000"/>
<path class="st0" d="M204.8,321.4c-76.4,0-138.4,62-138.4,138.4c0,76.4,62,138.4,138.4,138.4c76.5,0,138.4-62,138.4-138.4
	C343.2,383.4,281.2,321.4,204.8,321.4C204.8,321.4,204.8,321.4,204.8,321.4z M268.2,521c-2.5,4.1-7.8,5.4-11.9,2.9
	c-32.5-19.9-73.4-24.3-121.6-13.3c-4.6,1.1-9.3-1.9-10.3-6.5c-1.1-4.6,1.8-9.3,6.5-10.3c52.7-12,98-6.9,134.4,15.4
	C269.4,511.7,270.7,517,268.2,521z M285.2,483.3c-3.1,5.1-9.8,6.7-14.8,3.6c-37.2-22.9-93.9-29.5-137.9-16.1
	c-5.7,1.7-11.7-1.5-13.5-7.2c-1.7-5.7,1.5-11.7,7.2-13.5c50.3-15.3,112.8-7.9,155.5,18.4C286.7,471.6,288.3,478.3,285.2,483.3
	L285.2,483.3z M286.6,444.1c-44.6-26.5-118.2-28.9-160.8-16c-6.8,2.1-14.1-1.8-16.1-8.6c-2.1-6.8,1.8-14.1,8.6-16.2
	c48.9-14.8,130.2-12,181.5,18.5c6.2,3.7,8.2,11.6,4.5,17.7C300.7,445.7,292.8,447.8,286.6,444.1L286.6,444.1z M442.9,449.2
	c-23.9-5.7-28.1-9.7-28.1-18.1c0-7.9,7.5-13.3,18.6-13.3c10.8,0,21.5,4.1,32.7,12.4c0.3,0.3,0.8,0.4,1.2,0.3c0.4-0.1,0.8-0.3,1-0.6
	l11.7-16.4c0.5-0.7,0.3-1.6-0.3-2.1c-13.3-10.7-28.3-15.9-45.9-15.9c-25.8,0-43.8,15.5-43.8,37.6c0,23.8,15.6,32.2,42.4,38.7
	c22.9,5.3,26.7,9.7,26.7,17.6c0,8.7-7.8,14.2-20.4,14.2c-14,0-25.3-4.7-38.1-15.7c-0.3-0.3-0.7-0.4-1.1-0.4c-0.4,0-0.8,0.2-1.1,0.5
	l-13.1,15.6c-0.5,0.7-0.5,1.6,0.1,2.2c14.8,13.2,33,20.2,52.7,20.2c27.8,0,45.8-15.2,45.8-38.7C484,467.3,472.1,456.3,442.9,449.2
	C443,449.2,442.9,449.2,442.9,449.2z M546.8,425.6c-12,0-21.9,4.7-30.1,14.5v-10.9c0-0.9-0.7-1.6-1.6-1.6h-21.4
	c-0.9,0-1.6,0.7-1.6,1.6v121.7c0,0.9,0.7,1.6,1.6,1.6h21.4c0.9,0,1.6-0.7,1.6-1.6v-38.4c8.2,9.1,18,13.6,30.1,13.6
	c22.4,0,45.1-17.2,45.1-50.2C591.9,442.9,569.3,425.6,546.8,425.6L546.8,425.6L546.8,425.6z M567,475.8c0,16.8-10.3,28.5-25.1,28.5
	c-14.6,0-25.7-12.2-25.7-28.5c0-16.2,11-28.5,25.7-28.5C556.4,447.3,567,459.3,567,475.8L567,475.8z M650,425.6
	c-28.8,0-51.4,22.2-51.4,50.6c0,28.1,22.4,50,51.1,50c28.9,0,51.6-22.1,51.6-50.4C701.3,447.7,678.7,425.6,650,425.6L650,425.6z
	 M650,504.5c-15.3,0-26.9-12.3-26.9-28.7c0-16.4,11.2-28.3,26.6-28.3c15.4,0,27.1,12.3,27.1,28.7C676.7,492.6,665.5,504.5,650,504.5
	z M762.8,427.6h-23.6v-24.1c0-0.9-0.7-1.6-1.6-1.6h-21.4c-0.9,0-1.6,0.7-1.6,1.6v24.1h-10.3c-0.9,0-1.6,0.7-1.6,1.6v18.4
	c0,0.9,0.7,1.6,1.6,1.6h10.3v47.6c0,19.2,9.6,29,28.5,29c7.7,0,14-1.6,20-5c0.5-0.3,0.8-0.8,0.8-1.4v-17.5c0-0.5-0.3-1-0.7-1.3
	c-0.5-0.3-1-0.3-1.5-0.1c-4.1,2.1-8.1,3-12.6,3c-6.9,0-9.9-3.1-9.9-10.1v-44.2h23.6c0.9,0,1.6-0.7,1.6-1.6v-18.4
	C764.4,428.3,763.7,427.6,762.8,427.6L762.8,427.6L762.8,427.6z M844.9,427.7v-3c0-8.7,3.3-12.6,10.8-12.6c4.5,0,8,0.9,12.1,2.2
	c0.5,0.2,1,0.1,1.4-0.2c0.4-0.3,0.6-0.8,0.6-1.3v-18c0-0.7-0.4-1.3-1.1-1.5c-4.2-1.3-9.7-2.6-17.8-2.6c-19.8,0-30.2,11.1-30.2,32.2
	v4.5h-10.3c-0.9,0-1.6,0.7-1.6,1.6v18.5c0,0.9,0.7,1.6,1.6,1.6h10.3v73.4c0,0.9,0.7,1.6,1.6,1.6h21.4c0.9,0,1.6-0.7,1.6-1.6v-73.4
	h20l30.6,73.4c-3.5,7.7-6.9,9.2-11.6,9.2c-3.8,0-7.8-1.1-11.8-3.4c-0.4-0.2-0.8-0.2-1.2-0.1c-0.4,0.1-0.8,0.4-0.9,0.8l-7.3,15.9
	c-0.3,0.8,0,1.6,0.7,2c7.6,4.1,14.4,5.9,22.8,5.9c15.8,0,24.5-7.4,32.2-27.2l37.1-95.9c0.2-0.5,0.1-1-0.2-1.5
	c-0.3-0.4-0.8-0.7-1.3-0.7h-22.3c-0.7,0-1.3,0.4-1.5,1.1l-22.8,65.2l-25-65.2c-0.2-0.6-0.8-1-1.5-1L844.9,427.7L844.9,427.7
	L844.9,427.7z M797.3,427.6h-21.4c-0.9,0-1.6,0.7-1.6,1.6v93.4c0,0.9,0.7,1.6,1.6,1.6h21.4c0.9,0,1.6-0.7,1.6-1.6v-93.3
	C798.9,428.3,798.2,427.6,797.3,427.6C797.3,427.6,797.3,427.6,797.3,427.6z M786.7,385.1c-8.5,0-15.4,6.9-15.4,15.3
	c0,8.5,6.9,15.4,15.4,15.4s15.3-6.9,15.3-15.4C802.1,391.9,795.2,385.1,786.7,385.1z M974.2,457.6c-8.5,0-15.1-6.8-15.1-15.1
	s6.7-15.1,15.1-15.1s15.1,6.8,15.1,15.1C989.3,450.7,982.7,457.6,974.2,457.6z M974.3,428.9c-7.7,0-13.6,6.1-13.6,13.6
	c0,7.5,5.8,13.6,13.5,13.6c7.7,0,13.6-6.1,13.6-13.6C987.8,434.9,982,428.9,974.3,428.9z M977.6,444l4.3,6h-3.6l-3.8-5.5h-3.3v5.5
	h-3v-15.8h7c3.7,0,6.1,1.9,6.1,5C981.3,441.8,979.8,443.4,977.6,444L977.6,444z M975.1,436.9h-3.9v5h3.9c2,0,3.1-1,3.1-2.5
	C978.2,437.7,977,436.9,975.1,436.9z"/>
</svg>
