<?xml version="1.0" encoding="utf-8"?>
<!-- Generator: Adobe Illustrator 19.2.0, SVG Export Plug-In . SVG Version: 6.00 Build 0)  -->
<svg version="1.1" id="Layer_1" xmlns="http://www.w3.org/2000/svg" xmlns:xlink="http://www.w3.org/1999/xlink" x="0px" y="0px"
	 viewBox="0 0 914 533" style="enable-background:new 0 0 914 533;" xml:space="preserve">
<style type="text/css">
	.st0{fill:#4C4B4C;}
	.st1{fill:#151515;}
	.st2{fill:#302F2F;}
	.st3{fill:#FFFFFF;}
</style>
<g>
	<path class="st0" d="M909,533.4H5.1c-2.8,0-5-2.2-5-5V5c0-2.8,2.2-5,5-5H909c2.8,0,5,2.2,5,5v523.4
		C914,531.1,911.8,533.4,909,533.4z"/>
	<rect x="10.8" y="9.5" class="st1" width="892.4" height="503.7"/>
	<path class="st2" d="M856.5,533.2H5.1c-2.8,0-5.1-2.3-5.1-5.1v-1.7c0-2.8,2.3-5.1,5.1-5.1h851.4c2.8,0,5.1,2.3,5.1,5.1v1.7
		C861.6,530.9,859.3,533.2,856.5,533.2z"/>
	<rect x="0.1" y="521.3" class="st2" width="8.1" height="7.4"/>
	<polygon class="st2" points="855.9,521.3 861.3,521.3 870,533.3 848.4,533.2 	"/>
	<g>
		<path class="st3" d="M889.4,530.8c-1.7,0-3.3,0-5,0c-0.3,0-0.3-0.1-0.3-0.3c0-0.7,0-1.4,0.2-2c0.3-1.2,1-1.9,2.1-2.3
			c1.7-0.7,3.4-1.3,5.1-2c0.8-0.3,1.3-0.8,1.5-1.6c0.1-0.3,0-0.3-0.2-0.3c-2.6,0-5.2,0-7.7,0c-0.3,0-0.3-0.1-0.3-0.3
			c0-0.3,0-0.6,0-0.9c0-0.2,0.1-0.2,0.2-0.2c3.2,0,6.4,0,9.6,0c0.1,0,0.2,0,0.2,0.1c0,0.8-0.1,1.6-0.4,2.4c-0.4,1-1.2,1.7-2.2,2
			c-1.7,0.7-3.4,1.3-5.2,2c-0.8,0.3-1.2,0.9-1.3,1.8c0,0.2,0,0.3,0.3,0.3c2.8,0,5.6,0,8.4,0c0.3,0,0.4,0.1,0.3,0.4
			c0,0.3,0.1,0.8-0.1,1c-0.2,0.2-0.6,0-1,0C892.3,530.8,890.8,530.8,889.4,530.8z"/>
		<path class="st3" d="M905.5,530.8c-0.7,0-1.5,0-2.2,0c-1.5,0-3.1-1.1-3.1-3c0-1.3,0-2.6,0-3.9c0-1.7,1.3-3,3-3c1.5,0,3.1,0,4.6,0
			c1.6,0,3,1.2,3,3c0,1.4,0,2.7,0,4.1c0,1.6-1.3,2.9-2.8,2.9C907.1,530.8,906.3,530.8,905.5,530.8
			C905.5,530.8,905.5,530.8,905.5,530.8z"/>
		<path class="st3" d="M878.8,522.8c0,0.5,0,1,0,1.4c0,0.5-0.1,0.9-0.3,1.3c-0.8,1.4-1.7,2.9-2.6,4.3c-0.5,0.8-1.4,1.1-2.3,1
			c-1,0-1.8-0.5-2.3-1.4c-0.7-1.3-1.5-2.5-2.2-3.8c-0.3-0.5-0.5-1-0.5-1.6c0-1,0-2,0-3c0-0.2,0-0.3,0.2-0.3c0.4,0,0.8,0,1.1,0
			c0.2,0,0.2,0.1,0.2,0.3c0,1.1,0,2.2,0,3.3c0,0.2,0,0.4,0.1,0.6c0.8,1.3,1.5,2.6,2.3,3.9c0.5,0.8,1.6,0.8,2.1,0
			c0.7-1.3,1.5-2.6,2.2-3.9c0.1-0.2,0.2-0.5,0.2-0.7c0-1.1,0-2.1,0-3.2c0-0.2,0-0.3,0.2-0.3c0.4,0,0.8,0,1.1,0c0.2,0,0.2,0,0.2,0.2
			C878.8,521.6,878.8,522.2,878.8,522.8z"/>
		<path class="st3" d="M880.7,525.8c0-1.6,0-3.1,0-4.7c0-0.2,0-0.3,0.3-0.3c0.4,0,0.8,0,1.1,0c0.2,0,0.2,0,0.2,0.2
			c0,3.2,0,6.4,0,9.6c0,0.2,0,0.2-0.2,0.2c-0.4,0-0.8,0-1.1,0c-0.2,0-0.3,0-0.3-0.3C880.7,528.9,880.7,527.3,880.7,525.8z"/>
		<path class="st3" d="M898.3,525.8c0,1.6,0,3.1,0,4.7c0,0.2-0.1,0.3-0.3,0.3c-0.4,0-0.8,0-1.1,0c-0.2,0-0.2,0-0.2-0.2
			c0-3.2,0-6.4,0-9.6c0-0.2,0.1-0.2,0.2-0.2c0.4,0,0.8,0,1.2,0c0.2,0,0.2,0.1,0.2,0.2C898.3,522.6,898.3,524.2,898.3,525.8z"/>
		<path class="st0" d="M905.5,529.4c-0.7,0-1.4,0-2.1,0c-0.9,0-1.6-0.6-1.6-1.5c0-1.4,0-2.8,0-4.2c0-0.8,0.7-1.5,1.5-1.5
			c1.4,0,2.9,0,4.3,0c0.9,0,1.5,0.7,1.5,1.5c0,1.4,0,2.8,0,4.1c0,0.9-0.7,1.5-1.5,1.5C906.9,529.4,906.2,529.4,905.5,529.4z"/>
	</g>
</g>
</svg>
