<?xml version="1.0" encoding="utf-8"?>
<!-- Generator: Adobe Illustrator 19.2.0, SVG Export Plug-In . SVG Version: 6.00 Build 0)  -->
<svg version="1.1" id="Layer_1" xmlns="http://www.w3.org/2000/svg" xmlns:xlink="http://www.w3.org/1999/xlink" x="0px" y="0px"
	 viewBox="0 0 1024 1000" style="enable-background:new 0 0 1024 1000;" xml:space="preserve">
<style type="text/css">
	.st0{fill:url(#SVGID_1_);}
	.st1{fill:#FFFFFF;}
	.st2{fill:#3093CA;}
	.st3{fill:url(#SVGID_2_);}
</style>
<linearGradient id="SVGID_1_" gradientUnits="userSpaceOnUse" x1="512" y1="1000" x2="512" y2="-2.298657e-08">
	<stop  offset="0" style="stop-color:#2D489E"/>
	<stop  offset="1" style="stop-color:#30BEE7"/>
</linearGradient>
<rect class="st0" width="1024" height="1000"/>
<path class="st1" d="M873.8,690.7c-4.4-2.2-9.4-2.1-14-3.5c-42.4-12.9-68.1-40.9-76.6-84.4c-0.9-4.5-1.1-9.1-1.1-13.7
	c-0.1-47.5,0.1-95-0.3-142.6c-0.1-12.2,8.7-20.5,19.8-19.9c11.8,0.7,23.8,0.3,35.6,0.1c3.8-0.1,4.6,1.1,4.6,4.7
	c-0.1,35.8-0.1,71.6-0.1,107.4c0,15.4,0.1,30.9,0.1,46.3c0,24.2,16.8,43.1,41.2,46.3c22,2.9,43.7-12.2,49.6-34.6
	c1.3-5,1.8-10.2,1.8-15.4c0-49.9,0-99.8-0.1-149.7c0-4.2,1.2-5.1,5.2-5c12.2,0.3,24.4,0.1,36.5,0.1c10.7,0,17.8,7.2,17.8,17.9
	c0,46.5-1.1,93,0.2,139.4c1.4,51.3-38,98.5-91.1,105.6c-0.8,0.1-1.8-0.2-2.2,0.9C891.6,690.7,882.7,690.7,873.8,690.7z"/>
<path class="st1" d="M401.4,690.7c-3.9-2.2-8.4-2.2-12.6-3.3c-42.4-11.1-73.3-46.3-78-89.5c-0.9-8.7-0.6-17.5-0.6-26.3
	c-0.1-41.7,0.2-83.5-0.2-125.2c-0.1-12.3,8.4-20.3,19.9-19.7c11.7,0.6,23.5,0.3,35.2,0.1c3.7-0.1,4.7,0.9,4.7,4.6
	c-0.1,50.1,0,100.1-0.1,150.2c-0.1,18.3,6.3,33,21.9,43.1c28.7,18.5,68.3-1.6,70.5-35.7c0.3-5.6,0.5-11.3,0.5-16.9
	c0-47.1,0-94.2-0.1-141.3c0-3,0.6-4.1,3.8-4.1c12.9,0.2,25.8,0,38.8,0.1c9.4,0.1,16.7,7.2,16.7,16.7c0,50.4,0.6,100.7-0.3,151.1
	c-0.5,28.3-14.3,51.3-35.2,70c-15.7,14.1-34.3,22-55.1,25.2c-0.8,0.1-1.8-0.2-2.2,1C419.8,690.7,410.6,690.7,401.4,690.7z"/>
<path class="st1" d="M44.8,430.4c1.7-2.9,4.2-3.8,7.5-3.7c13.4,0.1,26.7,0,40.1,0c9.4,0,15,4,18.1,12.8
	c12.3,34.9,24.5,69.9,36.7,104.9c6.7,19,13.3,38,20,57c0.5,1.5,0.2,4.2,2.5,4.2c2.2-0.1,2.5-2.7,3.1-4.4
	c7.3-20.7,14.5-41.4,21.8-62.1c11.6-32.8,23.1-65.7,34.7-98.5c3.6-10.3,8.7-13.8,19.6-13.8c12.5,0,25,0,37.4,0
	c8.3,0,10.5,3,7.7,10.8c-23.8,65.8-47.6,131.5-71.3,197.3c-5.5,15.3-10.8,30.7-16.1,46.2c-0.9,2.8-2.3,4-5.2,4.4
	c-13.5,2.3-27,4.2-40.7,1.4c-19.7-4-31.6-16.9-38.1-35C99.2,587,76.1,522.1,52.9,457.2c-2.6-7.2-4.6-14.6-8.1-21.5
	C44.8,433.9,44.8,432.2,44.8,430.4z"/>
<path class="st1" d="M236.4,296.7c2.9,10.1,4.1,20.6,6.1,30.9c3.1,15.8,5.9,31.7,8.7,47.6c0.4,2,2.5,5.2-1.7,6.1
	c-6.6,1.4-9.8,0-10.5-4.3c-2.7-16.4-5.5-32.9-8.4-50.7c-2.8,7.1-5.2,12.9-7.5,18.8c-4.4,11.2-8.7,22.3-13.1,33.5
	c-0.8,2-1.2,3.8-4.1,3.8c-2.8,0-3.5-1.6-4.3-3.6c-6.5-16.5-13-33.1-19.5-49.6c-0.2-0.5-0.4-1-1.2-2.9c-1.3,7.4-2.3,13.5-3.3,19.6
	c-1.6,10.1-3.1,20.2-4.8,30.3c-0.3,1.7,0.2,4.5-2.3,4.8c-3.2,0.5-6.5,0.9-9.7-0.3c-1.4-0.5-1-2.2-0.7-3.6c3.6-19.2,7-38.5,10.7-57.7
	c1.5-7.7,1.9-15.6,4.9-22.9c1.5,0,3,0,4.5,0c2.3,1.2,3,3.6,3.9,5.8c6.6,16.5,13.5,33,20.2,49.5c0.4,1,0.5,2.3,2,3.2
	c3.5-7.6,6.3-15.3,9.5-23c4.2-10.3,8.4-20.6,12.6-30.9c0.7-1.7,1.2-3.4,2.7-4.6C232.9,296.7,234.7,296.7,236.4,296.7z"/>
<path class="st1" d="M313.1,296.7c8.1,2.7,16.1,5.5,22.3,11.9c12.1,12.5,16.1,27.3,11.2,43.8c-5,16.5-16.6,26.7-33.5,29.5
	c-25.7,4.2-45.4-12.2-49.6-34c-4.6-23.6,10.7-46.1,33.9-50.5c0.5-0.1,1-0.5,1.5-0.8C303.6,296.7,308.4,296.7,313.1,296.7z"/>
<path class="st1" d="M670.6,296.7c0.3,0.9,1.1,0.8,1.8,1c14.1,4.9,18.1,19.6,8.4,31.1c-2.5,3-5.4,5.5-8.6,7.7
	c-1.2,0.8-2.1,1.5-0.6,3c4.9,4.8,9.6,9.6,14.7,14.7c3.2-5.2,4-10.6,4.6-16.1c0.3-2.3,0.5-4.6,3.5-3.6c2.7,0.9,7.8-0.9,7,5
	c-0.9,6.8-2.6,13.4-5.7,19.5c-1.1,2.2-1.1,3.6,0.9,5.3c3,2.5,5.5,5.4,8.3,8c2.9,2.8,1.3,5-0.9,7.1c-2.2,2.2-4.3,4.5-7.5,1.6
	c-2.3-2.1-4.6-4.3-6.6-6.6c-1.9-2.2-3-2.4-5.4-0.2c-8.5,7.7-18.9,9.6-29.9,7.6c-8.7-1.7-14.7-7.2-16.8-15.9
	c-2.2-9.2,0.6-17.3,7.7-23.7c2.3-2.1,5-3.8,7.8-5.9c-1.5-1.8-3-3.6-4.6-5.5c-10.4-12.6-7.2-26.2,7.7-32.9c0.6-0.3,1.5-0.4,1.7-1.3
	C662.2,296.7,666.4,296.7,670.6,296.7z"/>
<path class="st1" d="M574.3,296.7c4.6,1.8,9.5,2.9,13.8,5.6c2.5,1.6,4.2,3.2,2.1,6.4c-3.5,5.6-4.5,6.2-8.4,3.8
	c-5.8-3.6-11.8-6.2-18.9-4.4c-4.4,1.1-7.4,3.6-8.6,8.1c-1.2,4.4,0.8,7.8,3.9,10.7c3.1,2.9,6.9,4.6,10.8,6.2
	c4.7,1.9,9.3,3.9,13.6,6.6c9.3,5.9,13.7,14.5,12,23.5c-1.8,9.7-9.3,17.1-20.1,18.8c-11.2,1.8-21.6-0.5-30.6-7.6
	c-3.6-2.8-3.3-4.1,0.7-9.6c2.5-3.4,4.4-1.6,6.6,0.2c6.3,5.4,13.4,8.1,21.8,5.9c4.4-1.2,7.4-3.9,8.3-8.4c0.9-4.3-1-7.8-4.2-10.7
	c-3.5-3.1-7.6-5.1-11.9-6.9c-4.1-1.7-8.2-3.5-11.9-5.9c-8.4-5.4-12.5-13-11.1-23c1.3-9.1,6.8-14.8,15.4-17.8
	c0.9-0.3,2.2-0.2,2.6-1.4C564.8,296.7,569.5,296.7,574.3,296.7z"/>
<path class="st1" d="M541,557c0-36.8,0-73.7,0-110.5c0-12.4,6.5-19.1,18.8-19.1c27.9,0.1,55.8-0.1,83.8,0.4
	c33.5,0.5,61.5,14.3,85.9,36.7c39.9,36.5,50.3,101.7,27.3,147.6c-20.7,41.3-53.6,67.3-100.1,74.3c-5.7,0.9-11.5,1.1-17.3,1.1
	c-26.1,0.1-52.3,0.1-78.4,0.5c-12.2,0.2-20.3-7.8-20.1-20C541.3,630.9,541,594,541,557z"/>
<path class="st1" d="M477,339.6c0-12.3,0.1-24.7-0.1-37c0-3.5,0.8-5.1,4.7-5c14.3,0.2,28.5,0.2,42.8,0c3.7,0,5.2,1.3,4.9,4.9
	c-0.3,3.3,0.9,6.9-4.9,6.7c-10.4-0.4-20.8,0-31.2-0.2c-2.8,0-3.9,0.6-3.8,3.7c0.2,5.6,0.3,11.3,0,16.9c-0.1,3.1,1.1,3.6,3.8,3.6
	c8.5-0.1,16.9,0.2,25.4-0.1c4.7-0.2,4.9,2.3,4.9,5.8c0,3.6-0.3,6-4.9,5.8c-8.5-0.3-16.9,0-25.4-0.1c-2.8,0-4,0.6-3.8,3.6
	c0.2,6.1,0.2,12.2,0,18.3c-0.1,2.9,1,3.4,3.6,3.4c10.2-0.1,20.5-0.1,30.7,0c5.2,0,5.2,0.3,5.5,6.1c0.2,4-1,5.5-5.2,5.4
	c-14.1-0.2-28.2-0.2-42.3,0c-3.8,0.1-4.8-1.3-4.7-4.9C477.1,364.2,477,351.9,477,339.6z"/>
<path class="st1" d="M391.1,358.1c8.2-18.4,16.3-36.4,24.3-54.4c2.5-5.7,7.1-7.9,12.9-6c3.1,1,2,3,1.1,5
	c-5.9,12.9-11.8,25.9-17.7,38.8c-5.6,12.4-11.3,24.8-17,37.2c-0.8,1.7-1.2,3.6-3.9,3.6c-2.6-0.1-3.1-2-3.8-3.7
	c-11.4-25.2-22.9-50.5-34.3-75.7c-2-4.3-1.4-5.2,3.3-5.3c7.8-0.2,7.8-0.2,11,7c7.3,16.4,14.5,32.8,21.8,49.1
	C389.5,355.2,390.3,356.4,391.1,358.1z"/>
<path class="st1" d="M847.1,358.4c3-6.6,5.5-12.1,7.9-17.6c5.9-13.3,11.8-26.5,17.8-39.8c1.3-2.9,10.5-4.9,12.8-2.7
	c1.7,1.6,0.5,3.3-0.2,4.9c-6.7,14.8-13.5,29.7-20.3,44.5c-4.7,10.4-9.5,20.8-14.2,31.2c-0.8,1.7-1.3,3.6-3.9,3.6c-2.7,0-3-2-3.8-3.7
	c-11.5-25.2-22.9-50.5-34.3-75.7c-1.9-4.2-1.2-5.3,3.4-5.3c8.9,0.1,7.3-1.2,11,7.1C831.1,322.3,838.8,339.7,847.1,358.4z"/>
<path class="st1" d="M778.3,344.9c0,10.5-0.1,21.1,0.1,31.6c0.1,3.7-1.3,5.3-4.9,4.8c-0.6-0.1-1.2,0-1.8,0c-6,0-6,0-6-5.8
	c0-20.3-0.1-40.7,0.1-61c0-4.1-0.7-5.9-5.3-5.4c-4.3,0.4-8.6,0-12.9,0.1c-4.3,0.1-3.8-2.9-3.7-5.5c0-2.7-0.8-6,3.7-6
	c16.2,0,32.4,0,48.6,0c2.6,0,3.7,1,3.8,3.7c0.3,7.7,0.4,7.7-7.2,7.7c-3.7,0-7.4,0.1-11.1,0c-2.6-0.1-3.3,0.8-3.2,3.3
	C778.4,323.2,778.3,334.1,778.3,344.9z"/>
<path class="st1" d="M454.8,339.9c0,12.2-0.2,24.3,0.1,36.5c0.1,4-1.3,5.4-5.2,4.9c-1.3-0.2-2.7-0.1-4,0c-2.4,0.1-3.4-1-3.4-3.5
	c0-25.5,0-51,0-76.6c0-2.7,1.1-3.8,3.7-3.7c0.4,0,0.9,0,1.3,0c7.5-0.1,7.5-0.1,7.5,7.5C454.8,316.8,454.8,328.4,454.8,339.9z"/>
<path class="st1" d="M950.1,355.6c-7,0-13.9-0.1-20.9,0c-2.7,0-4.1-0.7-4.1-3.7c0-3,1.3-3.7,4.1-3.7c14.1,0.1,28.2,0.1,42.3,0
	c2.9,0,3.9,1.1,3.9,3.9c0,2.8-1.4,3.6-3.9,3.5C964.3,355.6,957.2,355.6,950.1,355.6z"/>
<path class="st1" d="M90.9,348.3c7,0,13.9,0.1,20.9,0c2.6,0,4.2,0.5,4.2,3.6c0,3-1.3,3.8-4,3.8c-14.1-0.1-28.2-0.1-42.3,0
	c-2.8,0-4-1-4-3.9c0-3.2,1.6-3.6,4.2-3.5C77,348.3,84,348.3,90.9,348.3z"/>
<path class="st2" d="M336.4,339.6c0,17-13.9,31.1-30.6,31.1c-16.8,0-30.9-14.1-30.9-30.9c-0.1-16.9,14.4-31.7,30.9-31.6
	C322.3,308.4,336.4,322.8,336.4,339.6z"/>
<path class="st2" d="M663.1,372.4c-11.2-0.1-17.4-9.9-13-19.3c1-2,2.3-3.8,3.9-5.4c5.3-5.2,5.9-5.1,10.9,0.4
	c4.2,4.6,8.4,9.2,12.9,13.5c1.9,1.9,1.6,2.9-0.2,4.6C673.3,370.2,668.2,372.1,663.1,372.4z"/>
<path class="st2" d="M653.6,316.1c0.1-4.5,2.4-7.5,6.3-9.3c4.2-1.9,9.6-0.6,12.6,2.8c3,3.3,3.4,7.1,1.6,11.1c-2,4.3-5.9,6.9-9.9,9.3
	c-0.5,0.3-1,0.5-1.6,0.3C659.4,329,653.6,320,653.6,316.1z"/>
<linearGradient id="SVGID_2_" gradientUnits="userSpaceOnUse" x1="598.412" y1="557.1754" x2="707.0407" y2="557.1754">
	<stop  offset="0" style="stop-color:#2A73B4"/>
	<stop  offset="1" style="stop-color:#2D82BE"/>
</linearGradient>
<path class="st3" d="M598.5,557c0-23.6,0.1-47.2-0.1-70.8c0-3.2,0.8-4.7,4.2-4.6c11.4,0.2,22.8,0.3,34.2,0.5
	c36,0.7,65.5,27.9,69.6,63.7c3.1,27.1-3.9,50.5-24.1,69.3c-12.6,11.7-28,17-45,17.5c-11.4,0.3-22.9-0.1-34.3,0.1
	c-3.6,0.1-4.5-1.1-4.5-4.6C598.5,604.5,598.5,580.7,598.5,557z"/>
</svg>
